G04 #@! TF.FileFunction,Legend,Bot*
%FSLAX46Y46*%
G04 Gerber Fmt 4.6, Leading zero omitted, Abs format (unit mm)*
G04 Created by KiCad (PCBNEW 4.0.3-stable) date 08/20/16 15:19:20*
%MOMM*%
%LPD*%
G01*
G04 APERTURE LIST*
%ADD10C,0.100000*%
%ADD11C,0.150000*%
%ADD12R,4.400000X4.400000*%
%ADD13R,5.900000X5.900000*%
G04 APERTURE END LIST*
D10*
D11*
X156845000Y-113665000D02*
X156845000Y-94615000D01*
X156845000Y-94615000D02*
X144145000Y-88265000D01*
X144145000Y-88265000D02*
X131445000Y-94615000D01*
X131445000Y-94615000D02*
X131445000Y-113665000D01*
X131445000Y-113665000D02*
X156845000Y-113665000D01*
X154455714Y-89463571D02*
X154312857Y-89511190D01*
X154265238Y-89558810D01*
X154217619Y-89654048D01*
X154217619Y-89796905D01*
X154265238Y-89892143D01*
X154312857Y-89939762D01*
X154408095Y-89987381D01*
X154789048Y-89987381D01*
X154789048Y-88987381D01*
X154455714Y-88987381D01*
X154360476Y-89035000D01*
X154312857Y-89082619D01*
X154265238Y-89177857D01*
X154265238Y-89273095D01*
X154312857Y-89368333D01*
X154360476Y-89415952D01*
X154455714Y-89463571D01*
X154789048Y-89463571D01*
X153931905Y-88987381D02*
X153360476Y-88987381D01*
X153646191Y-89987381D02*
X153646191Y-88987381D01*
X152503333Y-89987381D02*
X153074762Y-89987381D01*
X152789048Y-89987381D02*
X152789048Y-88987381D01*
X152884286Y-89130238D01*
X152979524Y-89225476D01*
X153074762Y-89273095D01*
%LPC*%
D12*
X144145000Y-104775000D03*
D13*
X131345000Y-104775000D03*
X156945000Y-104775000D03*
M02*
